<svg id="Layer_1" xmlns="http://www.w3.org/2000/svg" viewBox="0 0 212 183.3"><style>.st0{fill:#2E3192;} .st1{fill:#FFFFFF;} .st2{fill:#2B3990;} .st3{fill-rule:evenodd;clip-rule:evenodd;fill:#ED1C24;} .st4{fill-rule:evenodd;clip-rule:evenodd;fill:#FFFFFF;}</style><g id="XMLID_71_"><path id="XMLID_151_" class="st0" d="M106.5 0c-1.6 0-2.6.9-3.1 1.8L5 151.2l-.6.8c-2.6 3.6-4.4 6.2-4.4 9.9v13.5c0 4.3 3.5 7.9 7.9 7.9h196.3c4.3 0 7.9-3.5 7.9-7.9v-13.5c0-3.8-.9-5.7-6.2-13.7L109.6 1.7c-.5-.8-1.5-1.7-3.1-1.7z"/><path id="XMLID_152_" class="st1" d="M106.5 2c1 0 1.4.7 1.4.7l96.2 146.6c5.2 7.8 5.9 9.4 5.9 12.6v13.5c0 3.2-2.7 5.9-5.9 5.9H7.9c-3.2 0-5.9-2.7-5.9-5.9v-13.5c0-3.2 1.8-5.6 4.7-9.6L105.1 2.8s.4-.8 1.4-.8"/><path id="XMLID_66_" class="st2" d="M106.6 13.9l50.3 77.5h-21.7l42.9 64.7H14.2z"/><path id="XMLID_69_" class="st3" d="M107.8 23.2v129.7h64.5l-43.7-64.8h22.3l-43.1-64.9z"/><path id="XMLID_70_" class="st4" d="M138.1 129.7l-4 1.3 2.2 4-4.1-.9.3 4.4-3.5-2.6-2 4.2-2-4.2-3.5 2.6.3-4.4-4.1.9 2.2-4-4-1.3 4-1.4-2.2-4 4.1 1-.3-4.5 3.5 2.6 2-4.1 2 4.1 3.5-2.6-.3 4.5 4.1-1-2.2 4 4 1.4z"/><path id="XMLID_68_" class="st4" d="M127.7 77.2l-1-1 1.8-1.2-2.2-.2.6-2.2-1.9 1-.4-2.2-1.4 1.7-1.5-1.8-.4 2.3-2.1-.8.7 2.1h-2.1l1.6 1.7-.6.4c-2.4-1.1-4.3-3.1-5.3-5.7 0 5.4 4.5 10 10 10s10-4.6 10-10c-.9 2.7-3 4.9-5.8 5.9z"/><g id="XMLID_73_"><g id="XMLID_60_"><path id="XMLID_67_" class="st2" d="M52.6 175.3v-13.5h4.8l3.8 4.9c1.1 1.4 2.2 3.1 3 4.6h.1c-.3-1.8-.3-3.6-.3-5.6v-3.9h3.8v13.5h-4.3l-3.9-5.2c-1.1-1.4-2.3-3.2-3.1-4.8h-.1c.1 1.8.2 3.7.2 5.9v4.1h-4z"/><path id="XMLID_64_" class="st2" d="M110.7 170.2c-.1-1.6-.2-3.6-.2-5.5h-.1c-.6 1.7-1.3 3.6-2 5.2l-2.2 5.3H103l-1.9-5.2c-.6-1.6-1.2-3.5-1.6-5.3h-.1c-.1 1.8-.2 3.9-.3 5.6l-.3 5.1H95l1.2-13.5h5.5l1.8 4.5c.6 1.6 1.1 3.2 1.5 4.8h.1c.5-1.6 1.1-3.3 1.7-4.8l1.9-4.5h5.4l1 13.5h-4l-.4-5.2z"/><path id="XMLID_61_" class="st2" d="M146.5 171.9l-1.3 3.5h-4.3l5.5-13.5h5.4l5.6 13.5H153l-1.4-3.5h-5.1zm4.6-2.3l-1.1-2.9c-.3-.8-.6-1.8-.9-2.6h-.1c-.3.8-.5 1.8-.8 2.6l-1.1 2.9h4z"/></g></g></g></svg>