<svg id="Layer_1" xmlns="http://www.w3.org/2000/svg" viewBox="0 0 942 957.7"><style>.st0{fill:#353C91;} .st1{fill:#DF1F28;}</style><g id="XMLID_64_"><path id="XMLID_175_" class="st0" d="M390 580.8c3.8-6.7 7.3-13.2 11.1-19.6.5-.9 1.7-1.5 2.7-1.8 1.8-.4 3.6-.5 5.4-.6 4.8-.1 9.7.1 14.5-.1 10.7-.4 12.2-1.9 12.2-12.4v-95-6.3h17.9v104.9c.5.1 1 .3 1.6.4 3-2.2 6.1-4.3 9-6.7 50.3-40.2 100.8-80.3 150.9-120.8 8.9-7.2 18.3-6.5 28.2-4.7.2 0 .3.1.5.2 11.8 1.9 20.7 8.2 29.1 16.6 43.7 43.7 87.9 86.9 131.9 130.2.8.8 1.7 1.6 3 2.8 3.3-2.8 6.5-5.6 9.7-8.4C827.8 550.9 838 542 848 533c2.3-2.1 4.3-2.9 7.1-1.3 5 3 10.1 5.7 14.8 9 22.7 16.3 45.3 32.8 68 49.1 2.9 2.1 4.2 4.2 4.1 7.8-.2 10.3-.1 20.6-.1 31.7-1.6-.9-2.7-1.3-3.7-2-25.6-19.1-51.2-38.2-76.9-57.4-5.6-4.2-12.2-4-17.3.9-26.4 25.9-53 51.5-79 77.8-19.7 19.9-38.4 40.7-57.8 60.8-2.9 3.1-3.6 6-2 9.3 3.7 7.9 7 16.3 11.9 23.5 20.3 29.5 33.6 62.3 45.4 95.7 13.3 37.4 21.6 76.1 28 115.2.1.8 0 1.6 0 3-7.9.5-15.8.9-24.1 1.4-2.2-10.8-4.2-21.2-6.5-31.5-10.8-50.1-26.6-98.5-50.3-144.1-27.1-52.2-62.9-97.6-108.5-134.9-39.9-32.6-85.4-53.1-136.2-61.8-24.6-4.2-49.2-5.6-74.1-4.5-.3.2-.8.1-.8.1zm267-109c6.4-6.1 11.5-6.5 18.6-1.2 3 2.3 5.7 5.1 8.8 7.4 2.7 2.1 5.7 4 8.6 5.9 2.9 1.8 5.5 1.1 7.2-1.8 1.7-2.8 2.4-5.4-.6-8.4-6.8-6.6-13.1-13.7-19.6-20.6-5.6-5.9-11-12.1-16.8-17.7-7.8-7.4-16.8-12.4-30.3-12.8-2.7.8-8.1 1.4-12.5 3.8-7.8 4.4-15.2 9.6-22.4 14.9-6.8 4.9-12.9 10.7-15.4 19.1-.7 2.3-1.1 6 .2 7.4 5.7 6 11.9 11.5 18.2 16.8 4.5 3.8 9.1 2.6 13-1.2 3.6-3.5 6.8-7.3 10-11.1 5-5.8 8.1-6.4 14.6-2.2"/><path id="XMLID_172_" class="st0" d="M438.9 750.9H21.1c5.2-3.7 9.3-6.7 13.4-9.6 42.4-30 84.7-60.1 127.2-90.1 1.9-1.3 4.5-2.2 6.8-2.2 43.8-.1 87.6-.1 131.5 0 2.4 0 5.2 1.1 7.2 2.6 40.5 30.4 80.9 60.8 121.3 91.3 2.9 2.4 6.1 4.8 10.4 8z"/><path id="XMLID_168_" class="st0" d="M534.3 814.9c17.4 0 34.4-.1 51.4 0 29.5.2 59 .4 88.5.8 10.2.1 18 6.6 19.2 16.7.9 6.9.7 13.9.9 20.9.1 5.1.1 10.3-.1 15.4 0 1.6-.4 3.4-1.2 4.7-2.1 3.3-4.6 6.5-6.2 8.6 3.1 6.3 7.1 11.8 8.4 17.9 1.4 6.7.3 13.9.2 20.9-.1 3.7-1 7.3-.8 10.9.6 10.9-5.9 17.2-14.6 20.9-5.8 2.5-12.5 3.8-18.8 3.8-41.1.3-82.3.1-123.4.1-3.9 0-6-1-5.9-5.3l2.1-133.9c-.1-.7.1-1.3.3-2.4zm41.7 85.6c0 6 .1 11.5 0 17-.1 3.3 1.2 4.3 4.4 4.2 20.3-.4 40.6-.5 60.9-1 11.7-.3 13.2-2.3 11.8-14.1-.5-4.1-2.3-6-6.8-6-22.3 0-44.6-.3-67-.4-1 0-1.9.2-3.3.3zm38.4-52v-.8h-26c-13.1 0-13 0-12.8 13.3 0 4.1 1.5 5 5.3 4.9 21.5-.2 42.9-.1 64.4-.1 6.1 0 7.7-1.5 7.9-7.5.1-2-.2-4-.3-6-.1-2.9-1.5-3.9-4.5-3.8-11.3.1-22.6 0-34 0z"/><path id="XMLID_165_" class="st0" d="M57.3 876.7v79.6c-12.3 0-23.6.2-34.9-.2-1.5 0-3.1-2.5-4.4-4.1-.5-.6-.1-1.9-.1-2.9 0-42.7.1-85.3 0-128 0-3.9 1.2-5.7 4.8-5.8 9.1-.2 18.3-.4 27.4-.2 1.7 0 3.5 1.7 5.1 2.9 30.3 24.3 60.5 48.6 90.8 72.8 1.4 1.2 3.3 1.8 5.8 3.3.4-6.5 1-12 1.1-17.4.1-18.5.2-37 0-55.5 0-3.7 1-5.7 4.8-5.8 10.6-.3 21.3-.7 31.9-.6 1.3 0 3.1 2.5 3.8 4.2.6 1.6.1 3.6.1 5.4 0 41.5-.1 83 .1 124.5 0 4.2-1.3 6.2-5.4 6.4-7.5.3-15 1.1-22.4.5-3.8-.3-7.9-2.4-11.1-4.8-31-23.7-61.7-47.6-92.6-71.4-1-.6-2.3-1.2-4.8-2.9z"/><path id="XMLID_162_" class="st0" d="M282.3 443s1.6 33.2 2.1 49.4c.1 3.3 1.2 5.5 3.7 7.6 23 18.7 45.9 37.5 68.8 56.3 1.1.9 2.2 2 4 3.6h-270c5.2-4.7 9.9-9.1 14.6-13.3 24.1-21.3 48.1-42.6 72.3-63.8 1.9-1.7 4.9-2.8 7.4-2.9 25-.2 81 .1 81 .1l.1-37.1h16z"/><path id="XMLID_159_" class="st1" d="M18.6 788.4c2-7.9-2.1-11.7-8.3-14.1-1.5-.6-3-1.4-4.4-2.3-5.5-3.4-7-7.5-4.9-14.1 1.6-5.1 3.8-9.9 9.7-12.8.7 2.8 1.4 5.1 2 7.4 1.3 5.8 3.1 7.3 8.8 7.3 85.5-.1 170.9-.3 256.4-.4 51.5-.1 103-.4 154.4-.4 10.9 0 19.9-4.7 28.6-10.2 2.9-1.8 4.6-5.4 7-8.2 4 2.5 6.4 8.1 4.3 13.7-1.7 4.5-4.5 8.9-7.5 12.7-5.1 6.3-10.6 12.2-9.1 21.5-145.8-.1-290.9-.1-437-.1z"/><path id="XMLID_156_" class="st1" d="M86.2 589.9c-1.8-1.6-3.3-4-5.3-4.8-8.1-3-13.9-9.7-13.9-18.2 0-5.2 1.5-10.5 2.7-15.6.3-1.2 1.8-2.7 2.9-2.9.9-.1 2.4 1.4 3 2.5 1.9 3.3 3.3 6.9 5.1 10.3 2.6 4.6 6.5 6.7 11.9 6.7 90.1-.1 180.2 0 270.3-.1 2.3 0 4.8-1 6.7-2.4 7.3-5.1 14.4-10.5 22.7-16.5 0 4.6.7 8-.1 11-2.4 8.1-5.9 15.6-14.5 19.2-5.3 2.2-7 6.3-5.3 13-7.1.2-13.7 1.1-20.2.5-8.3-.7-14.2 1.5-20 8-10.7 12-22.5 23.2-34 34.5-1.8 1.7-4.8 3-7.3 3-37 .2-74 .2-110.9-.1-3.1 0-6.8-1.5-9.3-3.4-15.8-12.4-31.4-25.3-47.2-37.8-2.2-1.7-5.3-2.7-8.1-3-9.9-.9-19.9-1.3-29.8-1.9.2-.7.4-1.3.6-2zm66.7 5.1c.5 1.1.6 1.7.9 2 8.2 8.3 16.3 16.6 24.7 24.7 1.2 1.2 3.6 1.8 5.4 1.8 33.8.1 67.6.1 101.4 0 1.9 0 4.3-.9 5.7-2.3 7.7-7.6 15.2-15.4 22.6-23.2.7-.7 1.1-1.7 1.9-3H152.9z"/><path id="XMLID_153_" class="st0" d="M448.7 848.5h-56.4c-6.9 0-8 1.1-8 8.2 0 31-.1 62 .1 93 0 4.8-1.2 7.2-6.2 7.2-11.1.1-22.3.5-33.4.6-3.7 0-3.9-3-3.9-5.8v-31.5c0-21.2-.2-42.3.2-63.5.1-5.5-2.1-7-6.8-7.1-15.1-.4-30.3-.6-45.4-1.1-13-.4-11.1.4-11.9-11.4-.4-5.1 0-10.3.2-15.5.1-4.4 2-6.2 6.9-6.1 19.3.3 38.7.1 58 .1 33.3 0 66.7.1 100-.1 4.7 0 6.8 1.5 6.8 6-.2 8.5-.2 17-.2 27z"/><path id="XMLID_150_" class="st1" d="M257.9 437.3v-24.4c5.4 0 51.7.1 51.7.1s0-5.6-.2-8.5c-.1-7.8 5.2-13.2 9.5-17 11.6-11.2 23.1-21.4 34.8-31.6 2.5-2.2 4.1-2.2 6.7-.2 15.1 12 30.4 23.9 45.7 35.6 3.4 2.6 4.6 5.2 4.6 9.6 0 3.4-.1 8.5-.1 12.5 17.4.8 34.4-.3 51.8.5v23.4H257.9zm72.6-29.7h57.3c-10.5-11.2-19.8-21.3-29.5-31.6-9.5 10.9-18.6 21.1-27.8 31.6z"/><path id="XMLID_147_" class="st0" d="M422.7 321.8l6.3 17.8H293.8l6.5-17.8z"/><path id="XMLID_144_" class="st0" d="M390.1 50.1v18.4c-3.8 0-7.4-.3-11 .1-5.1.6-4.4 4.9-4.7 9.2h-25.2c-.5-9.3-7.7-9.7-16.6-9.5v-18s3.4-.2 4.1-.3c11.4-1.2 11.4-1.1 14.3-12.4 2.9-11.4 5.9-22.8 8.9-34.2.3-1.2 1.4-2.2 2.2-3.3.7 1.2 1.7 2.3 2 3.6 3.2 12.9 6.2 25.8 9.3 38.7 1.7 7.3 2.5 7.9 10.2 7.8 2-.1 4-.1 6.5-.1z"/><path id="XMLID_141_" class="st0" d="M302.1 305.1l6.2-17.1 107.5-.1 6.2 17.2z"/><path id="XMLID_138_" class="st0" d="M412.3 261.1c1.2 4.4 2.3 8.7 3.5 13.4H307.2c1-4.6 1.9-8.9 2.9-13.4h102.2z"/><path id="XMLID_135_" class="st0" d="M405.6 233.7l4.5 11.9h-95.2l3.7-11.8z"/><path id="XMLID_132_" class="st0" d="M319.9 218.1l3.1-9.1h77.2l3.6 9.1z"/><path id="XMLID_129_" class="st0" d="M385.9 357l43.9.1 6.3 17.3H409z"/><path id="XMLID_126_" class="st0" d="M334.1 355.9l-18.3 18.6h-29.5l7.5-18.6z"/><path id="XMLID_122_" class="st0" d="M357.4 522.1c2.2 5.6 4.3 10.6 6.1 15.8.2.7-1.2 1.9-1.4 2.2-3.1-4.4-5.8-8.4-8.7-12.3-2.8-3.8-2.3-7.1 1.5-10.4 3.1-2.7 6-5.5 9.2-8.4-2.6-3.5-4.7-2.1-6.8-.7-5.7 3.8-11.8 3.3-15.4-1.4-2.4-3.2-1.2-12.4 2.2-15.8 5.4-5.5 15.9-6.4 22.1-1.8 3.4 2.6 5.1 5.7 4.1 10.4-2.1 9.3-5.4 17.7-12.9 22.4zm-4.1-29.6c4.1 3.7 7.3 6.7 10.5 9.6 1.9-5.2 1.1-8.8-2.8-10.4-3-1.2-6.2-2.2-7.7.8zm2.9 10.1c-.2-.5-.4-1.1-.7-1.6-2.9-1.2-5.9-2.3-8.9-3.5-1.9 4.2-1.7 8.1 2.1 9.3 2 .5 5-2.7 7.5-4.2z"/><path id="XMLID_119_" class="st0" d="M397.6 193.8h-72.5l3-8.1h66.4z"/><path id="XMLID_116_" class="st0" d="M225.1 437.4c5.2 9.9 9.9 19.1 15 28.9h-30c5-9.7 9.9-19 15-28.9z"/><path id="XMLID_113_" class="st0" d="M393.4 172h-63l2.6-6.5 57.7-.1z"/><path id="XMLID_110_" class="st0" d="M335.3 148.7l2.6-6.7 47.8-.1 3 6.8z"/><path id="XMLID_107_" class="st0" d="M297.3 480.3c3.6-6.3 9.6-7 15.9-6.3 6.1.7 11.9.9 18.1-.3 3.1-.6 8.2 4.2 10.9 7.7 1.8 2.3-2.5 5.4-6.1 5.1-1.8-2.9-2.7-6.4-4.6-7.1-2-.7-5 1.1-7.5 2.1-1.3.6-2.4 2.6-3.5 2.6-1.5 0-3.3-1.1-4.4-2.2-1.4-1.5-2.6-5.2-3.4-5.1-2.5.4-4.8 2.2-7.3 3.5 1.5 2.5 2.5 4.2 3.5 5.9-4.7 1-4.9.9-11.6-5.9z"/><path id="XMLID_104_" class="st0" d="M409.7 489.7c-2.8-3.4-4.3-6.6-6.7-7.6-1.3-.5-4.5 2.5-6.2 4.5-3.2 3.8-6 4.1-8 .3-3.6-6.7-5.3-6.8-10.2-1.4v6.6c-2.4-1.4-4.7-2.8-7-4.2 3.8-8.1 8.3-9.9 16-8.4 4.1.8 8.6.1 12.8-.3 4.5-.3 9.1-1.6 12.8 1.9 1.5 1.3 2.3 3.4 3.4 5.1-1.9 1.1-3.8 2.4-5.7 3.4-.8.4-1.8.1-1.2.1z"/><path id="XMLID_101_" class="st0" d="M382.5 123.8s1.4 3.7 2 5.4h-45.3l1.7-5.4h41.6z"/><path id="XMLID_98_" class="st0" d="M297.3 467.6c-2.8-2.8-.9-4.2 1.1-5.7 11.3-8.2 34.5-6.7 44.4 3 1.2 1.1 1.4 3.2 2.1 4.8l-1.4 1.4c-2.4-1.2-4.8-2.3-7.1-3.5-3.7-2-7.2-5.4-11.1-5.8-8.7-.9-17.7-.5-25.6 4.4-.7.4-1.5.9-2.4 1.4z"/><path id="XMLID_95_" class="st0" d="M342.8 111.2l1.8-6.4 33.7.2 2.1 6.2z"/><path id="XMLID_72_" class="st0" d="M441.5 398.2h-22.7v-9l18.9.1 3.8 8.9z"/><path id="XMLID_69_" class="st0" d="M281.3 398.2l3.1-9.4h17.9v9.4h-21z"/><path id="XMLID_66_" class="st0" d="M375.1 86.6l1.9 6.6h-29.7l1.3-6.6z"/><path id="XMLID_62_" class="st0" d="M373.5 470.2c4.2-5.3 10.1-7.7 16.4-9 8.8-1.8 17.7-1.9 26.2 2.3 4 2 4.2 4.4 2.5 8.3-7.9-7.9-16.8-11.3-27.4-8.1-3.3 1-6.2 3.1-9.3 4.6-2.5 1.2-5.1 2.1-7.7 3.1-.2-.4-.5-.8-.7-1.2z"/><path id="XMLID_51_" class="st0" d="M360.3 466.7c-4.1.1-8.2-3-8.4-6.3-.1-3.4 3.9-7.6 7.2-7.6 3.9 0 7.6 3.4 7.6 7 0 3.7-2.9 6.8-6.4 6.9z"/></g></svg>