<svg id="Layer_1" xmlns="http://www.w3.org/2000/svg" viewBox="0 0 279.9 386.4"><style>.st0{fill:#45B649;} .st1{fill:#FFFFFF;}</style><g id="XMLID_157_"><g id="XMLID_161_"><path id="XMLID_163_" class="st0" d="M231 163.4c-12-52.6-59.1-91.9-115.4-91.9S12.3 110.8.3 163.4H231z"/><path id="XMLID_162_" class="st0" d="M0 215.1c11.6 53.2 58.9 93.1 115.6 93.1s104.1-39.9 115.6-93.1H0z"/></g><g id="XMLID_160_"><path id="XMLID_187_" class="st1" d="M176.9 266.9c-.5-3.8-4.2-10.1-10.8-14.8-3.7-2.6-7-7.8-9.3-14.5-1.6-4.9-5.4-3.7-7.7-3-2.4.7-22.6 3.2-36.6 2.7s-30-3.9-34.7-6.1c-2.3-1.1-4.4-1.2-6-.4-1.7.8-2.4 2.2-2.6 2.9l-6.9 12.1c-3.4 5.9-3.5 11.7-3 15.5.4 2.9.1 15.4 0 19.9-.1 4.4 6.1 4.7 13.3 5.2 1.9.1 3.8.2 5.5.4 4.2.4 11.7 2.3 18.4 3.9 4.7 1.2 8.8 2.2 11.3 2.6 2.1.4 6 .5 10.3.5 5.3 0 11.3-.2 16-.3 2.7-.1 4.9-.1 6-.1 4.2 0 9.1-.4 16.2-3.1 6.8-2.6 12.8-8.3 17.7-12.9l.2-.2c3.8-3.6 4.2-5.3 3.3-8.3-.4-.8-.5-1.3-.6-2zM72.6 282.3c-3.1-.2-8.3-.5-9.5-1.3 0-1.4.2-7.5.2-12.8 2.3.4 5.9 1.4 8.6 4 2.5 2.5 3.8 5.9 3.9 10.3-1-.1-2.1-.1-3.2-.2zm35.6 6.9c-2.3-.4-6.5-1.4-11-2.5-6.1-1.5-12.8-3.1-17.4-3.8 0-2.4-.3-4.5-1-6.5 2.1-1.9 8.6-6.3 19.2-3.8 10.5 2.5 13.6 10.4 14.4 16.9-1.7 0-3.2-.1-4.2-.3zm31.7 0c-1.1 0-3.3.1-6.1.1-4.8.1-11.6.3-17.1.3.2-2.1.9-5.4 3.3-7.9 2.2-2.4 5.6-3.7 9.9-3.7h.4c10.7 0 14.2 7.3 15.2 10.9-2 .2-3.8.3-5.6.3zm7.8-13.6c-.4 1.9-.7 4.3-1 6.6-2.7-4.1-7.6-8.2-16.4-8.2h-.4c-5.5.1-9.8 1.8-12.8 5.1-.9 1-1.6 2-2.2 3.1-2.1-5.5-6.6-11.1-15.7-13.4-11.1-2.7-18.5 1.3-21.9 3.9-.7-1.2-1.5-2.3-2.5-3.2-3.7-3.7-8.6-4.9-11.4-5.2 0-1.5-.1-2.7-.2-3.4-.4-3.2-.3-8 2.5-13l7.1-12.5.1-.3s.2-.4.6-.6c.5-.3 1.5-.1 2.7.4 5.2 2.3 21.5 5.9 36.3 6.4 14.7.5 35-2 37.9-2.8.7-.2 2-.6 2.3-.5 0 0 .2.2.5.9.9 2.7 2.2 5.9 4 8.9-5.3 2.4-7.3 8.7-7.3 12.8-.3 2.9-1 8.5-2.2 15zm11.6 8.4c-1.5 1-3.1 1.8-4.6 2.4-1.6.6-3.1 1.1-4.5 1.5.3-3.1.8-8.2 1.5-11.5.6-3.2 2-11.2 2-15.9 0-2.6 1.4-8 5.7-9.4V284zm12-10l-.2.2c-2.3 2.2-4.9 4.7-7.7 6.9V255c.1.1.3.2.4.3 5.4 3.8 8.7 9.1 9.2 12.2.1 1 .4 1.8.6 2.4.3 1.2.4 1.5-2.3 4.1z"/><path id="XMLID_201_" class="st1" d="M190.5 124c-3.1-1.9-6.5-3.6-10.6-4.2-.7-3.1-2.7-8.1-8-11.6-5.6-3.6-10.7-4.7-15.6-5.7-.9-.2-1.7-.4-2.6-.6-2.2-.5-4-1.6-5.9-2.8-2.4-1.6-5.2-3.3-9.3-3.9-5-.7-9.3 1.1-11.6 2.3-2.3-3.3-8.1-10.2-16.7-10.2-9.4 0-14.5 5.2-16.3 7.6-13.6-.8-19.6 8.6-21.5 12.4-1-.1-2-.2-3.1-.2h-.5c-19 .4-31.2 15-31.7 15.6l3.1 2.5c.1-.1 11.6-13.8 28.7-14.1 9.5-.2 14.2 5.9 14.3 6.2l3.2-2.4c-.2-.2-3.5-4.6-10-6.7 1.9-3.5 7.2-10.3 18.2-9.2l1.3.1.7-1.1c.2-.3 4.2-6.7 13.6-6.7 8.6 0 14.2 9.8 14.3 9.9l1.1 2 1.8-1.3s4.9-3.4 10.6-2.7c3.2.4 5.3 1.8 7.6 3.3 2.1 1.3 4.2 2.7 7.1 3.4l2.7.6c4.8 1 9.3 1.9 14.2 5.1 3.5 2.3 5.2 5.6 5.9 8-.6 0-1.1.1-1.7.1-5.4.6-9.1 4.8-11.2 7.7-2.1-2.9-6.2-6.9-12.7-6.9-6.1 0-10.6 4.2-12.7 6.7-2.7-2.2-8.3-5.8-17.4-6.1-13-.4-20.8 7.9-21.1 8.3l3 2.7c.1-.1 6.8-7.3 18-7 11.1.4 16.1 6.1 16.3 6.3l1.8 2.1 1.5-2.3c0-.1 4.3-6.8 10.8-6.8 7.4 0 10.7 7.3 10.9 7.6l1.8 4 1.9-4c0-.1 3.7-7.8 9.8-8.5 5-.6 8.9.8 13 3.1l-.1 6.5 4 .1.1-4.1c5.5 3.8 9.8 7.9 9.8 7.9l2.8-2.9c-.3.1-6.3-5.7-13.6-10.1z"/><path id="XMLID_202_" class="st1" d="M151.7 157.7v-19h7.7v-2H77.1v2h19v5.6c-.3 0-.6 0-1.1-.1-.5-.1-1.1-.1-2-.1h-1.1c-.4 0-1.2.1-2.5.2s-2.5.3-3.7.7c-.9.3-1.6.6-2.1 1s-1 .8-1.4 1.4c-.4.5-.7 1-.8 1.5s-.1 1.1-.1 1.9c0 .6.2 1.1.5 1.7.4.5.9 1.1 1.5 1.6.6.6 1.4 1.1 2.2 1.4.8.4 1.8.8 3 1.1 1.2.3 2.3.6 3.3.8 1 .2 2.1.2 3.5.2 1.1 0 2.1-.1 3.2-.2 1-.1 1.7-.3 2.2-.3 1.1-.2 2.2-.4 3.2-.7 1-.3 2.1-.6 3.1-1.1l-2.9-2.1c-1.3.5-2.4.8-3.5 1.1-1 .3-2.3.5-3.7.6-.4 0-1.1.1-1.9.2-.9.1-1.8.2-2.6.2-1 0-2-.1-3-.3-1-.2-1.9-.4-2.6-.6-.7-.3-1.3-.6-1.8-1.2s-.7-1.1-.7-1.7c0-.5.2-1 .5-1.5s.7-.9 1.3-1.2c.6-.3 1.3-.6 2.2-.9.9-.3 1.9-.5 2.8-.6s2-.2 3.3-.2h6.5v-8.4h12.7v16.7l4.5 2.3v-19H147.3v5H131.4c-.4 0-.8 0-1.2.1-.4.1-.7.3-1 .6-.2.3-.3.6-.3 1s.2.9.5 1.3l3.8 3.9c.2.2.4.4.8.5.4.1.8.2 1.1.1.6-.1.9-.4.9-.9V146h11.4v9.4l4.3 2.3z"/></g><g id="XMLID_176_"><path id="XMLID_177_" class="st0" d="M28.7 209.5v-33.9H15.9v-6.9H50v6.9H37.3v33.9h-8.6z"/><path id="XMLID_179_" class="st0" d="M104.3 209.5h-9.4l-3.7-9.3H73.9l-3.5 9.3h-9.2l16.7-40.8h9.2l17.2 40.8zm-16-16.2l-5.9-15.2-5.8 15.2h11.7z"/><path id="XMLID_182_" class="st0" d="M162 209.5h-9.4l-3.7-9.3h-17.2l-3.5 9.3H119l16.7-40.8h9.2l17.1 40.8zm-16-16.2l-5.9-15.2-5.8 15.2H146z"/><path id="XMLID_185_" class="st0" d="M181 209.5v-40.8h8.4L207 196v-27.3h8.1v40.8h-8.7l-17.3-26.6v26.6H181z"/></g><path id="XMLID_159_" class="st0" d="M54 10.5s85.9-26 161.1 3.7c34.7 13.7 59.5 46.3 59.5 46.3s16.5 16.5-9 34.3c0 0-29-43.3-63-60L181 82.2l-25.3-11.5 16.6-49.8S118.6 7.2 54 10.5z"/><path id="XMLID_158_" class="st0" d="M43.1 386.4s13.3-55.7 22.3-72.3c3.4-6.8 7.4-6.9 10.4-5.8 3.7 1.4 5.1 5.8 1.8 13.2-5.1 11.1-11.3 27-34.5 64.9z"/></g></svg>